<svg width="1512" height="209" viewBox="0 0 1512 209" fill="none" xmlns="http://www.w3.org/2000/svg">
<path d="M0 16.3331L42 17.3248C84 18.1748 168 20.1582 252 18.7415C336 17.3248 420 12.5081 504 15.6248C588 18.7415 672 29.5081 756 30.9248C840 32.3415 924 24.4081 1008 17.0415C1092 9.67481 1176 3.15816 1260 1.03316C1344 -1.09184 1428 1.17483 1470 2.44983L1512 3.58315V210.416H1470C1428 210.416 1344 210.416 1260 210.416C1176 210.416 1092 210.416 1008 210.416C924 210.416 840 210.416 756 210.416C672 210.416 588 210.416 504 210.416C420 210.416 336 210.416 252 210.416C168 210.416 84 210.416 42 210.416H0V16.3331Z" fill="#AEE2CF"/>
</svg>
