<svg width="1512" height="310" viewBox="0 0 1512 310" fill="none" xmlns="http://www.w3.org/2000/svg">
<path d="M0 5.41671L42 7.25836C84 9.24169 168 12.925 252 10.375C336 7.82504 420 -1.24161 504 0.741726C588 2.58339 672 15.3334 756 15.7584C840 16.325 924 4.42502 1008 9.38336C1092 14.3417 1176 36.1584 1260 45.5084C1344 55 1428 52.1667 1470 50.75L1512 49.3334V311.417H1470C1428 311.417 1344 311.417 1260 311.417C1176 311.417 1092 311.417 1008 311.417C924 311.417 840 311.417 756 311.417C672 311.417 588 311.417 504 311.417C420 311.417 336 311.417 252 311.417C168 311.417 84 311.417 42 311.417H0V5.41671Z" fill="#C7EFC2"/>
</svg>
