<svg width="1512" height="119" viewBox="0 0 1512 119" fill="none" xmlns="http://www.w3.org/2000/svg">
<path d="M0 35.4167L42 27.3417C84 19.4084 168 3.2584 252 1.70007C336 6.60692e-05 420 12.7501 504 14.4501C588 16.0084 672 6.65838 756 2.83338C840 -0.991618 924 0.991733 1008 5.24173C1092 9.49173 1176 16.0084 1260 16.5751C1344 17.0001 1428 11.3334 1470 8.50005L1512 5.66672V120.417H1470C1428 120.417 1344 120.417 1260 120.417C1176 120.417 1092 120.417 1008 120.417C924 120.417 840 120.417 756 120.417C672 120.417 588 120.417 504 120.417C420 120.417 336 120.417 252 120.417C168 120.417 84 120.417 42 120.417H0V35.4167Z" fill="#A8D1D1"/>
</svg>
