<svg width="1512" height="397" viewBox="0 0 1512 397" fill="none" xmlns="http://www.w3.org/2000/svg">
<path d="M0 11.6667L42 7.84167C84 4.15833 168 -3.49165 252 3.87502C336 11.2417 420 33.3417 504 38.1584C588 42.8334 672 30.0833 756 26.9667C840 23.9917 924 30.5083 1008 32.2083C1092 33.9083 1176 30.5084 1260 33.2C1344 35.75 1428 44.25 1470 48.5L1512 52.75V398.417H1470C1428 398.417 1344 398.417 1260 398.417C1176 398.417 1092 398.417 1008 398.417C924 398.417 840 398.417 756 398.417C672 398.417 588 398.417 504 398.417C420 398.417 336 398.417 252 398.417C168 398.417 84 398.417 42 398.417H0V11.6667Z" fill="#F1F7B5"/>
</svg>
